<?xml version="1.0" encoding="UTF-8"?>
<svg id="a" data-name="레이어 1" xmlns="http://www.w3.org/2000/svg" width="512" height="512" viewBox="0 0 512 512">
  <path d="m69.773,113.035c12.55-16.309,27.157-30.854,43.372-43.291,16.215-12.437,34.05-22.774,53.055-30.667,18.738-7.777,38.614-13.175,59.203-15.866,19.892-2.612,40.448-2.685,61.288.063s40.674,8.148,59.209,15.827c19.187,7.937,36.985,18.303,53.065,30.671l-142.965,186.227L69.773,113.035Z" fill="#ffce00" stroke-width="0"/>
  <path d="m256,256l142.965-186.227c16.309,12.55,30.854,27.157,43.291,43.372,12.437,16.215,22.774,34.05,30.667,53.055l-216.923,89.8Z" fill="#16bf9f" stroke-width="0"/>
  <path d="m256,256l216.923-89.8c7.777,18.738,13.175,38.614,15.866,59.203l-232.789,30.597Z" fill="#4a4aa5" stroke-width="0"/>
  <path d="m256,256l232.789-30.597c2.612,19.892,2.685,40.448-.063,61.288-2.748,20.84-8.148,40.674-15.827,59.209-7.937,19.187-18.303,36.985-30.671,53.065-12.55,16.309-27.157,30.854-43.372,43.291-16.215,12.437-34.05,22.774-53.055,30.667-18.738,7.777-38.614,13.175-59.203,15.866l-30.597-232.789Z" fill="#bd2de0" stroke-width="0"/>
  <path d="m225.31,488.725l30.69-232.725,30.597,232.789c-19.892,2.612-40.448,2.685-61.288-.063Z" fill="#f9d" stroke-width="0"/>
  <path d="m23.275,225.31c2.748-20.84,8.148-40.674,15.827-59.209,7.937-19.187,18.303-36.985,30.671-53.066l186.227,142.965-30.69,232.725c-20.84-2.748-40.674-8.148-59.209-15.827-19.187-7.937-36.985-18.303-53.065-30.671-16.309-12.55-30.854-27.157-43.291-43.372-12.437-16.215-22.774-34.05-30.667-53.055-7.777-18.738-13.175-38.614-15.866-59.203-2.612-19.892-2.685-40.448.063-61.288Z" fill="#c92828" stroke-width="0"/>
  <polygon points="245.137 0 266.863 0 256 46.999 245.137 0" fill="red" stroke-width="0"/>
</svg>